<mxfile host="www.draw.io" modified="2019-10-16T15:50:23.213Z" agent="Mozilla/5.0 (X11; Linux x86_64) AppleWebKit/537.36 (KHTML, like Gecko) snap Chromium/77.0.3865.90 Chrome/77.0.3865.90 Safari/537.36" etag="L024ydOZqXX4pdYZ-Jsh" version="12.1.2" type="github" pages="1">
  <diagram id="tdlL6g1Edck_2_fW_npT" name="Page-1">
    <mxGraphModel dx="934" dy="503" grid="1" gridSize="10" guides="1" tooltips="1" connect="1" arrows="1" fold="1" page="1" pageScale="1" pageWidth="850" pageHeight="1100" math="0" shadow="0">
      <root>
        <mxCell id="0"/>
        <mxCell id="1" parent="0"/>
        <mxCell id="D8BETo8GCqY8Qp0zKFxR-5" value="Solidity" style="html=1;dashed=0;whitespace=wrap;fillColor=#d5e8d4;strokeColor=#82b366;" vertex="1" parent="1">
          <mxGeometry x="240" y="1020" width="320" height="50" as="geometry"/>
        </mxCell>
        <mxCell id="D8BETo8GCqY8Qp0zKFxR-6" value="EVM bytecode &amp;amp; abi" style="html=1;dashed=0;whitespace=wrap;fillColor=#f5f5f5;strokeColor=#666666;fontColor=#333333;" vertex="1" parent="1">
          <mxGeometry x="240" y="940" width="320" height="50" as="geometry"/>
        </mxCell>
        <mxCell id="D8BETo8GCqY8Qp0zKFxR-7" value="typescript interface for web3" style="html=1;dashed=0;whitespace=wrap;fillColor=#f5f5f5;strokeColor=#666666;fontColor=#333333;" vertex="1" parent="1">
          <mxGeometry x="240" y="860" width="320" height="50" as="geometry"/>
        </mxCell>
        <mxCell id="D8BETo8GCqY8Qp0zKFxR-19" value="truffle compile" style="triangle;whiteSpace=wrap;html=1;direction=north;fillColor=#dae8fc;strokeColor=#6c8ebf;" vertex="1" parent="1">
          <mxGeometry x="260" y="990" width="290" height="30" as="geometry"/>
        </mxCell>
        <mxCell id="D8BETo8GCqY8Qp0zKFxR-20" value="typechain" style="triangle;whiteSpace=wrap;html=1;direction=north;fillColor=#dae8fc;strokeColor=#6c8ebf;" vertex="1" parent="1">
          <mxGeometry x="260" y="910" width="290" height="30" as="geometry"/>
        </mxCell>
        <mxCell id="D8BETo8GCqY8Qp0zKFxR-21" value="API&lt;br&gt;&lt;font style=&quot;font-size: 11px&quot;&gt;(simplified access for typed interface)&lt;/font&gt;" style="html=1;dashed=0;whitespace=wrap;fillColor=#d5e8d4;strokeColor=#82b366;" vertex="1" parent="1">
          <mxGeometry x="240" y="780" width="320" height="50" as="geometry"/>
        </mxCell>
      </root>
    </mxGraphModel>
  </diagram>
</mxfile>
